PathFileType	4	(X/Y/Z)	C:\Users\Gabre\Documents\2-Sophmore\Autumn\ME 191\Nick_10292018\Nick_10292018\Upper Extremity\static_upper.trc																																																																			
DataRate	CameraRate	NumFrames	NumMarkers	Units	OrigDataRate	OrigDataStartFrame	OrigNumFrames																																																															
100	100	9	23	mm	100	1	253																																																															
Frame#	Time	Back_IMU_O			Back_IMU_D			Back_IMU_X			Back_IMU_Y			c7			aa			L.Acromion			ij			EpL			EpM			R.Radius			R.Ulna			R.Hand			Humerus_IMU_O			Humerus_IMU_D			Humerus_IMU_X			Humerus_IMU_Y			Forearm_IMU_O			Forearm_IMU_D			Forearm_IMU_X			Forearm_IMU_Y			Hand_IMU_O			Scapula_IMU_O		
		X1	Y1	Z1	X2	Y2	Z2	X3	Y3	Z3	X4	Y4	Z4	X5	Y5	Z5	X6	Y6	Z6	X7	Y7	Z7	X8	Y8	Z8	X9	Y9	Z9	X10	Y10	Z10	X11	Y11	Z11	X12	Y12	Z12	X13	Y13	Z13	X14	Y14	Z14	X15	Y15	Z15	X16	Y16	Z16	X17	Y17	Z17	X18	Y18	Z18	X19	Y19	Z19	X20	Y20	Z20	X21	Y21	Z21	X22	Y22	Z22	X23	Y23	Z23
																																																																						
1	0	-583.29449	504.73224	1010.61554	-608.12628	574.80023	899.6214	-592.74713	589.64636	1000.42694	-599.20636	491.32529	909.91516	-577.9422	550.34625	1024.49695	-455.74658	407.49219	1008.26611	-502.35223	732.53809	977.50745	-405.21448	572.43475	985.31995	-153.76132	313.30075	955.50366	-154.45801	346.13037	885.67371	110.38757	396.08826	1009.12762	100.6883	335.81924	1025.45874	222.0598	389.7688	1018.44128	-338.2276	367.06104	1027.15967	-298.87177	294.03738	929.33765	-363.97174	296.78259	945.69952	-274.62949	362.10678	1009.7558	33.0802	404.49948	1013.09424	78.42986	305.79593	1023.70837	32.12317	305.65973	1017.65808	79.38718	404.01727	1019.77399	175.8772	372.69016	1038.25	-484.04568	370.35092	1011.03912
2	0.01	-583.28888	504.73187	1010.48419	-607.98291	574.66553	899.5144	-592.68604	589.66437	1000.37518	-599.07086	491.1485	909.89453	-577.91803	550.34235	1024.51318	-455.75891	407.44247	1008.2785	-502.36685	732.5318	977.48749	-405.22028	572.37427	985.27209	-153.69173	313.25076	955.34711	-154.52055	346.24551	885.57507	110.38651	396.34729	1009.21674	100.64416	335.79504	1025.28247	222.14479	389.76321	1018.28351	-338.30051	367.12613	1027.12732	-298.91037	293.96863	929.20679	-363.95819	296.78577	945.65503	-274.5618	362.07373	1009.61444	33.10122	404.56262	1012.80719	78.57648	305.89105	1023.65509	32.12472	305.63641	1017.46515	79.46471	404.00827	1019.67883	175.88132	372.64828	1038.0033	-483.96857	370.27228	1010.95947
3	0.02	-583.13348	504.75443	1010.505	-608.01794	574.72614	899.54095	-592.75073	589.65845	1000.33893	-599.03406	491.04407	909.89569	-577.86334	550.25189	1024.5238	-455.73276	407.43777	1008.23792	-502.3371	732.4472	977.5202	-405.17584	572.20062	985.24194	-153.58565	313.14563	955.17169	-154.50842	346.22644	885.51495	110.43002	396.2731	1009.0321	100.73712	335.66	1025.0802	222.2357	389.64755	1018.17834	-338.25702	367.0925	1027.1084	-298.8493	293.86682	929.19812	-363.88559	296.7312	945.59747	-274.5787	361.9762	1009.52271	33.21444	404.50446	1012.63861	78.52251	305.74567	1023.36365	32.2178	305.54556	1017.27814	79.66568	403.98502	1019.44202	175.94661	372.70764	1037.84131	-483.73767	370.05298	1010.88055
4	0.03	-583.04633	504.6633	1010.48853	-607.93237	574.58777	899.58453	-592.7265	589.61279	1000.36066	-598.92548	491.01047	909.80994	-577.77161	550.16418	1024.53601	-455.66095	407.38281	1008.21625	-502.30829	732.37219	977.54999	-405.13486	572.23651	985.27612	-153.49158	313.12564	955.09113	-154.37373	346.0116	885.492	110.4424	396.16739	1008.85645	100.82129	335.68695	1024.87317	222.29779	389.61349	1017.98822	-337.96381	366.93759	1027.07727	-298.85532	293.85358	929.12762	-363.79926	296.69461	945.52808	-274.51767	361.98056	1009.4209	33.24282	404.45465	1012.56421	78.53446	305.84369	1023.09772	32.3701	305.50101	1017.09265	79.69939	403.92627	1019.36542	175.96732	372.71948	1037.71875	-483.7829	369.97113	1010.76099
5	0.04	-583.04614	504.65692	1010.55652	-607.91669	574.52557	899.67432	-592.73615	589.61444	1000.43164	-598.93567	491.01105	909.85266	-577.73987	550.12518	1024.55042	-455.62924	407.36877	1008.16162	-502.26672	732.34265	977.56714	-405.10266	572.07324	985.29877	-153.37341	313.08331	954.94153	-154.20615	345.87143	885.60303	110.62004	396.06342	1008.78668	100.85616	335.62271	1024.76086	222.32182	389.60443	1017.85553	-337.99783	366.93594	1027.05811	-298.83762	293.83661	928.97125	-363.80109	296.68237	945.51343	-274.43793	361.93274	1009.39075	33.37791	404.46112	1012.40826	78.63259	305.79733	1023.01807	32.4204	305.51019	1017.02936	79.81628	403.9483	1019.16724	176.12975	372.62137	1037.49707	-483.87469	369.93213	1010.87
6	0.05	-582.99225	504.60919	1010.62219	-607.94397	574.52576	899.70886	-592.7063	589.58527	1000.51959	-598.95654	491.01172	909.88489	-577.73743	550.10571	1024.55859	-455.56369	407.30591	1008.14063	-502.23099	732.33838	977.60602	-405.03851	572.09589	985.28046	-153.23889	313.04349	954.8443	-154.00299	345.72208	885.63739	110.63765	396.06589	1008.6947	100.90816	335.57532	1024.66736	222.45943	389.54349	1017.73145	-338.24506	366.92667	1027.03345	-298.78821	293.77847	928.91821	-363.74915	296.66434	945.43054	-274.37161	361.88712	1009.37946	33.51419	404.51797	1012.33893	78.66736	305.76834	1022.84137	32.46403	305.52521	1016.91162	79.86519	403.86752	1019.10553	176.19884	372.58536	1037.40613	-483.58829	369.85364	1010.79572
7	0.06	-583.07574	504.47812	1010.68658	-607.896	574.4325	899.71716	-592.71307	589.53687	1000.60126	-598.92395	490.90994	909.91101	-577.61139	550.01654	1024.54529	-455.65244	407.24316	1008.15796	-502.17841	732.32312	977.63885	-405.01041	572.09991	985.25726	-153.20589	313.02515	954.78143	-153.936	345.81363	885.58746	110.68285	396.01773	1008.57849	101.05621	335.57928	1024.51123	222.58975	389.57495	1017.56061	-337.92914	366.84967	1026.98035	-298.6564	293.74271	928.81433	-363.58633	296.57602	945.26746	-274.27295	361.85907	1009.3479	33.50622	404.39655	1012.26599	78.83778	305.72043	1022.68152	32.38865	305.4827	1016.91522	79.87331	403.76642	1018.9762	176.24249	372.52847	1037.30493	-483.62234	369.81134	1010.80164
8	0.07	-583.18695	504.50613	1010.78937	-607.89899	574.4234	899.72961	-592.83636	589.43903	1000.79224	-599.07416	490.8244	910.02197	-577.62646	549.99255	1024.62732	-455.42914	407.22348	1008.09503	-502.20239	732.29706	977.67139	-404.93561	571.92279	985.30676	-153.21176	312.96036	954.72559	-153.83592	345.61951	885.61871	110.75637	395.95288	1008.48004	101.10328	335.61942	1024.46338	222.592	389.50177	1017.47375	-337.82828	366.8121	1026.90466	-298.65775	293.69809	928.73688	-363.57495	296.67578	945.25476	-274.26825	361.87967	1009.25043	33.59455	404.34866	1012.13928	78.97638	305.44122	1022.67395	32.43409	305.42276	1016.78558	79.90558	403.77765	1018.76398	176.24722	372.53134	1037.18188	-483.56323	369.76736	1010.84442
9	0.08	-583.17767	504.39502	1010.79132	-607.91583	574.42358	899.81378	-592.88123	589.37378	1000.81537	-599.08594	490.75662	910.06586	-577.55981	549.95703	1024.6134	-455.54315	407.17432	1008.11761	-502.18887	732.28235	977.68732	-404.96503	571.86029	985.28021	-153.17603	312.9473	954.60699	-153.78122	345.56577	885.59332	110.81652	395.87488	1008.35278	101.12403	335.51678	1024.23047	222.63457	389.46103	1017.30316	-337.52402	366.78488	1026.6001	-298.57785	293.63077	928.67664	-363.48615	296.59692	945.12555	-274.23688	361.89355	1009.2207	33.57604	404.23209	1012.14575	78.97521	305.63977	1022.46844	32.50846	305.33823	1016.6264	79.95946	403.66528	1018.7348	176.37474	372.46024	1037.03992	-483.46259	369.7457	1010.85803
